<svg xmlns="http://www.w3.org/2000/svg" viewBox="0 0 64 64">
  <title>Vatsalya — Devanagari initial व</title>
  <rect width="64" height="64" fill="#123C51" />
  <path d="M584.2194213867188 538.9404907226562H484.45928955078125V0H387V193.68017578125L419.21978759765625 173.90032958984375Q388.85980224609375 141.80029296875 344.5898132324219 124.62030029296875Q300.31982421875 107.4403076171875 244.599853515625 107.4403076171875Q186.3599853515625 107.4403076171875 140.83004760742188 128.12030029296875Q95.30010986328125 148.80029296875 69.03012084960938 188.34027099609375Q42.7601318359375 227.8802490234375 42.7601318359375 283.960205078125Q42.7601318359375 372.240234375 100.7601318359375 415.960205078125Q158.7601318359375 459.68017578125 252.46002197265625 459.68017578125Q281.3599853515625 459.68017578125 306.3099670410156 456.68017578125Q331.25994873046875 453.68017578125 352.61993408203125 448.68017578125L345.82000732421875 365.70062255859375Q326.0799560546875 370.34063720703125 305.5699157714844 372.66064453125Q285.05987548828125 374.98065185546875 260.49981689453125 374.98065185546875Q207.73968505859375 374.98065185546875 174.38955688476562 351.0905456542969Q141.0394287109375 327.200439453125 141.0394287109375 281.42022705078125Q141.0394287109375 240.56005859375 168.239501953125 216.02993774414062Q195.4395751953125 191.49981689453125 246.93975830078125 191.49981689453125Q293.9598388671875 191.49981689453125 333.7398681640625 213.72982788085938Q373.5198974609375 235.9598388671875 397.17999267578125 272.41986083984375L387 213.70025634765625V538.9404907226562H0V622H584.2194213867188Z" transform="translate(14.154 51.000) scale(0.061093 -0.061093)" fill="#FFFCF5" />
</svg>
