<svg xmlns="http://www.w3.org/2000/svg" width="320" height="240" viewBox="0 0 320 240" fill="none">
 <title>A warm Ayodhya welcome</title><desc>Three earthen diyas, expressive flames and water ripples.</desc>
 <ellipse cx="163" cy="194" rx="147" ry="35" fill="#DFF0EF"/>
 <circle cx="161" cy="103" r="66" fill="#FCE7C4"/>
 <path d="M127 110c-4-27 28-35 30-69 33 30 22 58 5 70" fill="#F2B638"/>
 <path d="M149 110c-5-17 10-29 14-43 11 20 10 33-1 44" fill="#BB3D21"/>
 <path d="M109 128c8 44 79 44 88 0" fill="#BB3D21" stroke="#123C51" stroke-width="3"/>
 <ellipse cx="153" cy="126" rx="44" ry="12" fill="#F2B638" stroke="#123C51" stroke-width="3"/>
 <path d="M124 139c16 9 43 9 59 0" stroke="#FFFCF5" stroke-width="3" stroke-linecap="round"/>
 <path d="M152 126c0-8 6-13 10-17" stroke="#123C51" stroke-width="3" stroke-linecap="round"/>
 <path d="M56 155c-10-23 11-31 17-56 27 24 21 43 6 57" fill="#F2B638"/>
 <path d="M68 156c-4-12 6-20 8-31 10 13 11 23 4 31" fill="#BB3D21"/>
 <path d="M32 171c9 37 72 37 81 0" fill="#BB3D21" stroke="#123C51" stroke-width="3"/>
 <ellipse cx="72" cy="168" rx="40" ry="10" fill="#FCE7C4" stroke="#123C51" stroke-width="3"/>
 <path d="M71 169c0-6 4-11 9-14" stroke="#123C51" stroke-width="3" stroke-linecap="round"/>
 <path d="M47 180c13 6 37 6 50 0" stroke="#F2B638" stroke-width="3" stroke-linecap="round"/>
 <path d="M225 143c-7-20 18-31 21-60 29 25 19 48 6 61" fill="#F2B638"/>
 <path d="M239 144c-3-15 9-20 10-32 11 16 9 24 3 32" fill="#BB3D21"/>
 <path d="M207 160c7 35 64 35 72 0" fill="#BB3D21" stroke="#123C51" stroke-width="3"/>
 <ellipse cx="243" cy="158" rx="36" ry="10" fill="#F2B638" stroke="#123C51" stroke-width="3"/>
 <path d="M242 158c0-6 4-11 10-14" stroke="#123C51" stroke-width="3" stroke-linecap="round"/>
 <path d="M221 169c13 6 31 6 43 0" stroke="#FFFCF5" stroke-width="3" stroke-linecap="round"/>
 <g stroke="#123C51" stroke-width="2.5" stroke-linecap="round">
  <path d="M37 205h52m43 0h49m39 0h60M98 218h46m19 0h60m-128-30h20m72 0h30M112 83l-12-9m4 31H89m94-35 9-13m-20-6 1-14M43 136l-11-6m252 8 11-7"/>
 </g>
 <path d="m281 81 3 8 8 3-8 3-3 8-3-8-8-3 8-3zM52 53l3 7 7 3-7 3-3 7-3-7-7-3 7-3z" fill="#BB3D21"/>
</svg>
